<?xml version="1.0" encoding="UTF-8"?>
<svg id="_图层_4" data-name="图层 4" xmlns="http://www.w3.org/2000/svg" xmlns:xlink="http://www.w3.org/1999/xlink" viewBox="0 0 216 354.5">
  <defs>
    <style>
      .cls-1 {
        fill: #a40000;
      }

      .cls-2 {
        fill: #01519a;
      }

      .cls-3 {
        fill: #fff;
      }

      .cls-4 {
        fill: #9f0d43;
      }

      .cls-5 {
        fill: url(#_未命名的渐变_3);
      }
    </style>
    <radialGradient id="_未命名的渐变_3" data-name="未命名的渐变 3" cx="18.16" cy="-107.9" fx="-2.45" fy="-117.2" r="98.32" gradientTransform="translate(80.79 239.51) scale(1.67)" gradientUnits="userSpaceOnUse">
      <stop offset="0" stop-color="#e07433"/>
      <stop offset=".09" stop-color="#df6e31"/>
      <stop offset=".22" stop-color="#db5d2c"/>
      <stop offset=".26" stop-color="#da562b"/>
      <stop offset=".37" stop-color="#d33936"/>
      <stop offset=".46" stop-color="#ce1e3b"/>
      <stop offset=".53" stop-color="#cd103c"/>
      <stop offset=".59" stop-color="#c21744"/>
      <stop offset=".74" stop-color="#a72156"/>
    </radialGradient>
  </defs>
  <g>
    <g>
      <path class="cls-3" d="M207.65,3.48c-.7-2.49-3.21-3.94-5.82-3.35l-108.87,28.26c-2.51.65-5.84,2.87-7.4,4.93l-20.91,27.59c-1.57,2.06-.78,4.2,1.76,4.75l118.34,25.59c2.53.54,5.13-1.06,5.77-3.56l18.28-71.38c.64-2.51.59-6.6-.1-9.1,0,0-1.05-3.74-1.05-3.74Z"/>
      <path class="cls-4" d="M215.13,7.19c-.72-2.43-1.81-4.36-4.46-5.21-2.13-.68-4.18-1.26-6.43-1.81h0c1.62.41,2.94,1.63,3.41,3.32l1.05,3.75c.7,2.49.74,6.59.1,9.1l-18.28,71.38c-.02.11-.07.21-.1.31l24.52-67.56c.53-1.74,1.07-2.7,1.07-5.71.02-3.09-.87-7.58-.87-7.58Z"/>
      <path id="SVGID" class="cls-5" d="M208.7,7.23l-1.05-3.75c-.7-2.49-3.21-3.94-5.82-3.35l-108.87,28.26c-2.51.65-5.84,2.87-7.4,4.93l-20.91,27.59c-1.57,2.06-.78,4.2,1.76,4.75l23.64,5.11c-.89-.59-1.72-1.27-2.44-2.04-1.43-1.51-2.49-3.32-3.19-5.41-.7-2.1-.94-4.41-.73-6.95.22-2.59.88-4.93,1.97-7.04s2.49-3.89,4.21-5.37,3.69-2.62,5.89-3.41c2.21-.79,4.55-1.19,7.03-1.19,2.29,0,4.51.4,6.66,1.21,2.14.81,3.84,1.99,5.08,3.54l-5.78,5.3c-.64-1.01-1.54-1.75-2.7-2.24-1.15-.49-2.35-.73-3.61-.73-1.38,0-2.66.25-3.85.75-1.19.5-2.24,1.2-3.14,2.08s-1.63,1.92-2.2,3.13c-.56,1.2-.91,2.52-1.03,3.95-.12,1.46-.02,2.8.34,4.02.35,1.22.89,2.26,1.63,3.13.73.87,1.65,1.54,2.74,2.03s2.3.73,3.65.73c1.56,0,2.95-.31,4.17-.92,1.21-.61,2.22-1.4,3-2.38l5.01,5.11c-1.58,1.64-3.46,2.95-5.66,3.91-1.58.69-3.3,1.12-5.16,1.32l39.67,8.58,1.13-5.16c.35.12.75.22,1.19.3s.84.12,1.2.12c1.16,0,2.03-.26,2.59-.8s1.07-1.29,1.53-2.26l.9-1.87-7.58-22.39h8.35l3.81,14.62h.14l5.82-14.62h7.98l-12.52,26.18c-.56,1.19-1.16,2.24-1.81,3.18-.64.93-1.39,1.72-2.23,2.38s-1.8,1.15-2.88,1.48c-.35.11-.73.19-1.13.26l36.68,7.93c2.53.54,5.13-1.06,5.77-3.56l18.28-71.38c.65-2.5.61-6.6-.09-9.09h0ZM121.71,72.61h-7.52l1.99-22.75h7.52l-1.99,22.75ZM124.89,42.6c-.05.58-.21,1.12-.49,1.63s-.62.94-1.03,1.3-.9.65-1.45.87-1.12.32-1.7.32c-1.22,0-2.21-.4-2.97-1.21-.75-.81-1.08-1.77-.98-2.9.05-.54.2-1.07.46-1.58.26-.5.6-.94,1.03-1.3s.92-.66,1.45-.89,1.11-.35,1.72-.35c.58,0,1.13.11,1.64.32.52.21.95.5,1.3.87.35.36.62.8.8,1.3.19.5.26,1.04.21,1.63ZM141.46,55.44h-5.37l-.76,8.71c-.09,1.07.04,1.87.41,2.41.36.54,1.08.8,2.15.8.36,0,.76-.03,1.18-.09s.77-.15,1.06-.27l-.39,5.48c-.54.18-1.2.35-2.01.48-.81.14-1.61.21-2.4.21-1.53,0-2.8-.19-3.8-.57s-1.79-.93-2.36-1.65c-.56-.72-.94-1.58-1.13-2.57s-.23-2.1-.12-3.32l.84-9.62h-3.67l.49-5.58h3.62l.52-5.98h7.38l-.52,5.98h5.37l-.49,5.58h0ZM197.28,60.41c-.17,1.95-.65,3.72-1.45,5.32-.8,1.6-1.86,2.97-3.18,4.11-1.33,1.15-2.88,2.04-4.66,2.67-1.78.64-3.73.96-5.84.96s-4.04-.32-5.69-.96c-1.66-.64-3.03-1.53-4.12-2.67-1.09-1.14-1.89-2.51-2.39-4.11s-.67-3.37-.49-5.32l1.77-20.15h7.8l-1.71,19.51c-.07.88-.03,1.72.12,2.52.16.79.45,1.5.87,2.12.42.63,1.01,1.12,1.75,1.48s1.67.54,2.77.54,2.05-.18,2.87-.54c.81-.36,1.48-.86,2.03-1.48.54-.62.96-1.33,1.24-2.12s.46-1.63.54-2.52l1.71-19.51h7.85l-1.77,20.15Z"/>
    </g>
    <g>
      <g>
        <path d="M9.3,91.99h5.58v-.97h-6.67v-1.55c1.83-.16,3.5-.4,5.07-.72l.21-.04-.54-1.01-.12.02c-3.55.73-7.15,1.09-10.73,1.09h-.46l.29,1.03h.13c1.78-.03,3.5-.12,5.11-.27v1.46H.5v.97h5.55c-.59.63-1.36,1.24-2.29,1.82-.67.44-1.27.78-1.86,1.06-.57.29-1.15.54-1.74.74l-.17.06.45.94.14-.05c1.28-.47,2.62-1.18,3.99-2.1.55-.38,1.08-.8,1.56-1.25.4-.35.73-.68,1.02-1.01v2.92h1.03v-2.92c1.38,1.55,3.5,2.98,6.31,4.24l.11.05.82-.9-.22-.09c-2.62-1.08-4.62-2.26-5.92-3.52Z"/>
        <path d="M3.18,102.87h1.03v-1.07h7.04v1.07h1.03v-7.51H3.18v7.51ZM4.21,98.02v-1.7h7.04v1.7h-7.04ZM11.24,98.99v1.83h-7.04v-1.83h7.04Z"/>
        <path d="M22.88,91.2l.13.13.64-.86-.11-.1c-.78-.73-1.62-1.38-2.57-1.99l-.13-.08-.59.78.15.1c.82.54,1.64,1.22,2.47,2.01Z"/>
        <path d="M23.25,96.28l-.86-.59-.07.22c-.64,2.17-1.53,4.18-2.66,6l-.08.13.93.65.09-.16c.59-1.09,1.09-2.09,1.5-3.06.44-1.04.81-2.08,1.11-3.08l.03-.12Z"/>
        <path d="M20.95,93.74c.46.41.9.85,1.23,1.2l.13.14.64-.83-.1-.1c-.82-.85-1.67-1.58-2.57-2.19l-.13-.09-.59.76.13.1c.42.32.83.67,1.25,1.01Z"/>
        <path d="M31.28,93.98h3.37v-.97h-3.63v-2.03h2.8v-.97h-2.8v-2.43h-1.03v2.43h-2.65v-2.43h-1.02v2.43h-2.36v.97h2.36v2.03h-3.3v.97h3.17c-.25.47-.56.97-.94,1.48-.58.73-1.29,1.41-2.11,2.02l-.16.12.77.74.12-.08c.49-.38.88-.72,1.24-1.07.26-.26.53-.53.78-.83v4.31c0,.33.03.58.11.8.07.21.19.37.37.47.08.12.34.21,1.31.28.87.05,2.06.08,3.47.08.73,0,1.28-.05,1.67-.16.4-.11.66-.31.72-.56.03-.07.07-.22.12-.64v-.05c.04-.34.09-.83.13-1.48v-.11l-1.08-.53-.02.25c-.07,1.25-.13,1.85-.14,1.9-.09.16-.4.35-1.4.35-3.42,0-4.01-.14-4.1-.2-.05-.05-.08-.09-.11-.17-.02-.04-.03-.12-.02-.28v-1.63h4.7v-3.12c.7.7,1.53,1.35,2.47,1.96l.12.07.8-.89-.18-.1c-1.57-.9-2.76-1.88-3.56-2.95ZM30,90.99v2.03h-2.65v-2.03h2.65ZM26.89,98.02v-1.63h3.67v1.63h-3.67ZM26.56,95.42c.29-.45.56-.93.79-1.44h2.73c.31.49.68.98,1.1,1.44h-4.62Z"/>
        <path d="M53.38,99.39c-.06.58-.11,1.02-.16,1.35-.07.35-.12.61-.14.72-.02.06-.09.19-.17.19-.11,0-.23-.09-.37-.28-.17-.22-.36-.56-.57-1.02-.14-.25-.26-.51-.35-.79-.12-.29-.2-.57-.27-.87h0c.78-1.12,1.45-2.99,1.98-5.55l.03-.16-1.09-.28-.03.17c-.19.98-.41,1.85-.68,2.65-.2.61-.41,1.15-.63,1.62-.12-.47-.21-.96-.28-1.49-.11-.56-.19-1.18-.26-1.96-.06-.66-.11-1.34-.14-2.08h3.84v-.97h-1.57l.79-.54-.07-.13c-.2-.38-.43-.75-.66-1.11-.21-.31-.45-.63-.76-1.02l-.1-.12-.83.58.1.14c.23.31.49.68.73,1.05.23.36.43.75.59,1.07l.04.08h-2.14c-.05-.85-.07-1.81-.06-2.94v-.16h-1.1v.16c-.02,1.11,0,2.07.06,2.95h-4.69v4.72c-.02.68-.06,1.34-.14,1.96l-.14-.87-.21.12c-.49.28-1.02.54-1.61.78v-4.22h1.86v-.97h-1.86v-4.13h-1.03v4.13h-1.97v.97h1.97v4.62c-.3.12-.61.24-.95.35-.34.12-.74.26-1.14.35l-.21.05.54,1.01.13-.04c.59-.17,1.26-.43,2.11-.8.67-.27,1.41-.62,2.42-1.11l.05-.02s0,.05,0,.07c-.12.67-.27,1.25-.48,1.72-.22.5-.49.97-.79,1.37-.31.4-.65.77-1.06,1.11l-.12.11.66.82.13-.11c.42-.35.8-.74,1.16-1.2.35-.47.67-.97.92-1.49.5-1.11.77-2.61.78-4.48v-.74h2.26c-.04.81-.09,1.69-.16,2.36s-.13,1.13-.19,1.36c-.07.21-.21.47-.46.47-.11,0-.3,0-.57-.07-.26-.05-.52-.13-.82-.25l-.23-.09v1.12l.11.04c.32.12.65.21.96.26.26.07.51.09.68.07.26.02.51-.07.68-.25.18-.14.34-.38.49-.73.12-.31.21-.86.32-1.78.07-.77.14-1.8.21-3.32v-.17h-3.3v-2.14h3.71c.1,1.68.28,3.23.53,4.56.07.48.14.84.23,1.2.07.36.16.71.27,1.01-.79,1.11-1.85,2.13-3.23,3.09l-.14.1.64.82.13-.08c1.21-.8,2.19-1.66,3-2.64.18.54.4,1.03.65,1.44.59,1.04,1.13,1.55,1.66,1.55.35,0,.65-.14.89-.43.11-.2.21-.49.31-.88.1-.39.18-.88.25-1.5v-.09l-.95-.77-.02.39h0Z"/>
        <path d="M67.26,89.72l-.07-.13c-.21-.37-.47-.74-.78-1.14-.26-.33-.54-.67-.89-1.05l-.1-.11-.91.63.12.14c.54.59.99,1.2,1.35,1.82h-7.43v1.1h7.11v2.6h-5.34v7.64h1.16v-6.54h4.17v8.18h1.16v-8.18h4.37v4.78c0,.33-.07.45-.12.49-.02.02-.07.05-.16.04-.64.02-1.39-.15-2.23-.49l-.25-.1.1,1.14.09.04c.37.15.77.26,1.2.34.35.07.73.12,1.09.12.94,0,1.44-.49,1.44-1.44v-6.01h-5.53v-2.6h7.11v-1.1h-6.91l.23-.17h0Z"/>
        <path d="M91.13,100.08c-.69-.63-1.27-1.29-1.79-2.05-.55-.71-1.01-1.5-1.38-2.34-.35-.79-.6-1.61-.78-2.48h5.71v-1.16h-7.1c.16-1.18.3-2.58.43-4.28l.02-.18h-1.16v.16c-.05.55-.1,1.07-.15,1.58-.02.26-.05.53-.07.78-.07.64-.15,1.31-.24,1.96h-5.9v1.16h5.71c-.17.86-.38,1.67-.62,2.4-.26.77-.54,1.39-.82,1.86-1.05,1.72-2.69,3.19-4.88,4.38l-.21.11.89.82.11-.06c1.23-.68,2.24-1.37,3.11-2.14.87-.78,1.58-1.65,2.1-2.56.61-1.05,1.12-2.67,1.51-4.82h.35c.21,1.03.48,1.96.85,2.81.43.99.91,1.84,1.46,2.58.58.88,1.2,1.64,1.9,2.33.67.65,1.44,1.26,2.35,1.86l.12.08.87-1.02-.16-.1c-.84-.52-1.58-1.07-2.21-1.67Z"/>
        <path d="M99.4,95.24h11.87v1.64h1.01v-2.61h-1.05l.31-5.92h-3.9v.97h2.84l-.06,1.01h-2.84v.98h2.79l-.05.94h-3v.97h2.95l-.07,1.06h-3.22l.55-.62-.13-.11c-.2-.16-.4-.34-.6-.54-.15-.12-.31-.26-.46-.4.3-.29.59-.64.9-1.07l.07-.11-.35-.39.57-.63-.13-.11c-.19-.16-.37-.32-.56-.49-.14-.11-.27-.22-.41-.35.16-.16.32-.33.49-.52.21-.23.4-.48.58-.71l.08-.11-.62-.69-.12.16c-.31.44-.68.86-1.13,1.28-.43-.31-.9-.63-1.51-1.01l-.12-.08-.59.69.16.11c.32.21.64.44.98.67l.35.24c-.24.17-.45.31-.65.43-.28.19-.59.35-.9.47h-.02v-.07h-3.04v-.57c.45-.07.93-.2,1.45-.35.49-.16.99-.35,1.5-.59l.16-.07-.56-.92-.13.06c-1.07.47-2.19.79-3.32.95l-.15.02.13,5.44h-1.07v2.61h1.03v-1.65h0ZM105.71,90.11c.28.26.56.54.86.82-.29.41-.61.78-.97,1.11-.2-.13-.4-.27-.6-.41-.25-.17-.49-.34-.74-.5l-.07-.05c.22-.12.45-.24.68-.39.32-.19.59-.38.84-.58ZM105.61,93.25c.16.16.33.31.49.45.19.19.39.39.59.58h-2.77c.58-.26,1.13-.6,1.68-1.03ZM103.4,90.75l.34.54.13-.07c.07-.03.12-.06.19-.09l-.5.61.47.32c.27.19.55.38.83.58-.44.33-.95.63-1.52.88l-.17.08.43.67h-3.2l-.02-1.13h3.13v-.97h-3.14v-.87h3.04v-.56h0Z"/>
        <path d="M112.81,98.79h-7.09v-.06c.81-.24,1.53-.5,2.21-.81.78-.33,1.45-.67,2.07-1.06l.08-.05v-.82h-9.43v.97h7.23c-.82.35-1.7.64-2.62.88-.02-.02-.02-.04-.04-.07l-.02-.04c-.04-.06-.08-.11-.11-.17l-.07-.16-.9.41.1.16c.05.07.09.16.14.24.05.09.1.18.15.25.06.12.11.22.16.33h-6.83v.97h7.12l.07.52c.03.23.05.47.07.7-.02.2-.03.39-.06.51-.02.11-.06.15-.06.15-.05.02-.11.04-.16.05-.07.02-.13.02-.19.02-.49,0-1.04-.12-1.67-.38l-.25-.1.1,1.15.11.03c.31.1.63.18.95.25.35.06.66.08.94.08.36,0,.68-.09.92-.29.27-.23.4-.71.4-1.48v-.1c-.02-.17-.04-.37-.07-.58l-.02-.09c-.02-.14-.04-.3-.07-.45h6.82v-.94h0Z"/>
      </g>
      <g>
        <path class="cls-1" d="M9.25,115.17c-.13.27-.31.54-.53.81-.21.26-.46.5-.73.72-.26.21-.56.38-.87.51-.31.13-.64.2-.97.2-.57,0-1.1-.1-1.58-.3s-.91-.49-1.26-.85c-.35-.37-.64-.82-.84-1.36s-.31-1.15-.31-1.83.11-1.3.31-1.84.49-1.01.85-1.39c.36-.38.79-.67,1.27-.87.49-.21,1.01-.31,1.57-.31.64,0,1.22.18,1.72.54.49.36.96.94,1.36,1.72l.04.08.87-.58-.04-.07c-.21-.34-.45-.66-.74-.97s-.62-.59-.99-.82-.78-.43-1.24-.57-.95-.21-1.48-.21-1.09.07-1.58.19c-.49.13-.96.31-1.36.54-.41.23-.79.51-1.12.84-.33.33-.61.68-.84,1.07s-.4.82-.53,1.25c-.12.45-.18.91-.18,1.38,0,.7.13,1.38.4,2.01.26.63.64,1.19,1.12,1.67.49.47,1.07.85,1.74,1.13.68.27,1.44.41,2.26.41.57,0,1.1-.07,1.56-.21s.89-.33,1.26-.57c.37-.24.7-.52.98-.82s.53-.64.73-.97l.04-.07-.85-.54-.04.1h0Z"/>
        <path class="cls-1" d="M13.49,106.75c-.08-.08-.19-.16-.31-.21-.23-.1-.5-.1-.73,0-.12.05-.21.12-.31.21s-.16.19-.21.31-.07.24-.07.37.02.26.07.37.12.21.21.31c.08.08.19.16.31.21s.24.07.37.07.26-.02.37-.07.21-.12.31-.21c.09-.08.16-.19.21-.31s.07-.24.07-.37-.02-.26-.07-.37c-.06-.12-.12-.21-.21-.31Z"/>
        <polygon class="cls-1" points="11.99 110.58 11.99 118.05 13.66 118.05 13.66 110.12 13.14 110.12 11.99 110.58"/>
        <path class="cls-1" d="M19.59,116.68c-.1.12-.21.21-.35.3-.12.07-.26.12-.42.12-.11,0-.21-.02-.3-.06s-.16-.09-.23-.16-.12-.15-.16-.23c-.04-.09-.06-.18-.06-.29v-5.29h1.7v-.82h-1.7v-2.59h-.5l-1.16.45v2.16l-1.26.35-.07.02v.44h1.33v5.29c0,.27.03.52.09.74.07.22.16.42.29.59.13.16.3.3.49.39s.44.14.7.14c.5,0,.94-.11,1.28-.32.35-.21.63-.49.84-.87l.04-.07-.51-.34-.05.06h0Z"/>
        <path class="cls-1" d="M25.08,115.65l-2.88-5.4h-1.91l3.94,7.36-.49,1.11c-.06.13-.13.28-.22.44-.08.15-.19.3-.3.43-.11.12-.23.23-.36.32-.12.08-.26.12-.4.12-.12,0-.23,0-.33-.03s-.19-.05-.27-.09c-.08-.03-.16-.07-.23-.11-.07-.04-.14-.07-.21-.1l-.07-.03-.67,1.49-.02.06.05.04c.12.09.27.17.45.23.17.06.36.08.54.08.25,0,.5-.04.77-.13s.52-.23.76-.41.48-.41.69-.69.4-.61.57-.99l3.94-9.09h-1l-2.34,5.4h0Z"/>
        <path class="cls-1" d="M39.72,114.51c0,.41-.07.8-.21,1.15s-.34.68-.59.94c-.26.27-.57.49-.93.64-.36.16-.78.24-1.24.24s-.87-.08-1.24-.24c-.37-.16-.68-.37-.94-.64s-.46-.59-.6-.94c-.14-.36-.21-.75-.21-1.15v-6.5h-1.83v6.45c0,.53.09,1.02.28,1.48.18.46.46.87.82,1.22s.82.62,1.34.82,1.15.3,1.84.3c.78,0,1.44-.1,2-.3s1.01-.47,1.38-.82c.35-.35.63-.75.79-1.2s.25-.95.25-1.46v-6.5h-.9v6.51h0Z"/>
        <path class="cls-1" d="M48.57,110.82c-.18-.21-.4-.39-.64-.51s-.5-.19-.78-.19c-.52,0-1.05.13-1.55.4-.45.23-.89.57-1.31,1.01v-1.41h-.52l-1.17.45v7.49h1.69v-5.69c.16-.15.32-.29.49-.41.18-.13.36-.25.54-.34s.36-.16.54-.22c.36-.11.68-.11.93.02.13.06.26.16.35.27s.18.27.24.45.08.4.08.64v5.29h1.68v-5.55c0-.32-.05-.64-.16-.92-.11-.31-.25-.56-.43-.78h0Z"/>
        <polygon class="cls-1" points="51.4 110.58 51.4 118.05 53.07 118.05 53.07 110.12 52.54 110.12 51.4 110.58"/>
        <path class="cls-1" d="M52.9,106.75c-.08-.08-.19-.16-.31-.21-.23-.1-.5-.1-.73,0-.12.05-.21.12-.31.21s-.16.19-.21.31-.07.24-.07.37.02.26.07.37.12.21.21.31c.08.08.19.16.31.21s.24.07.37.07.26-.02.37-.07.21-.12.31-.21c.09-.08.16-.19.21-.31s.07-.24.07-.37-.02-.26-.07-.37c-.06-.12-.12-.21-.21-.31Z"/>
        <polygon class="cls-1" points="58.42 115.91 55.78 110.26 54 110.26 57.66 118.09 57.68 118.14 58.31 118.14 61.76 110.38 61.82 110.26 60.95 110.26 58.42 115.91"/>
        <path class="cls-1" d="M69.07,115.08c-.07.23-.18.45-.35.66-.16.21-.37.41-.61.58s-.51.31-.8.41c-.29.1-.6.16-.92.16-.37,0-.73-.09-1.04-.26-.31-.17-.59-.41-.82-.72s-.41-.68-.54-1.11c-.12-.4-.19-.84-.19-1.31h5.68v-.08c0-.43-.08-.85-.26-1.25s-.41-.75-.72-1.05c-.31-.31-.68-.54-1.11-.73-.42-.18-.9-.27-1.4-.27-.58,0-1.11.11-1.58.33-.47.21-.87.52-1.21.91-.33.39-.59.85-.78,1.38s-.27,1.11-.27,1.72c0,.52.1,1.01.31,1.47.2.46.48.86.82,1.2.35.34.75.61,1.21.81.46.2.97.3,1.49.3.4,0,.8-.07,1.2-.23.39-.15.75-.36,1.08-.62.33-.26.62-.57.87-.92s.43-.73.54-1.13l.02-.07-.59-.26-.03.08h0ZM63.82,112.71c.02-.25.08-.47.17-.68.1-.24.23-.45.39-.62s.34-.31.53-.4c.44-.21.94-.17,1.35,0,.23.1.43.24.6.41.17.17.31.38.4.62.09.21.13.45.15.68l-3.6-.02h0Z"/>
        <path class="cls-1" d="M76.02,110.21c-.47-.13-.97-.12-1.44.02-.25.07-.49.19-.71.33s-.43.31-.61.5c-.12.13-.24.27-.33.42l-.18-1.38h-.31l-1.16.45v7.5h1.68v-5.38c.1-.21.21-.4.35-.55s.28-.29.44-.4c.16-.1.32-.18.49-.23.29-.08.59-.09.88-.07.12,0,.22.03.33.07.11.03.21.09.31.15.1.07.2.15.3.25l.09.11.55-1.47-.06-.04c-.19-.12-.4-.22-.63-.28h0Z"/>
        <path class="cls-1" d="M82.15,114.3c-.21-.18-.45-.35-.73-.49-.26-.14-.54-.27-.82-.39l-.81-.35c-.26-.11-.49-.24-.7-.37-.2-.13-.36-.27-.48-.44-.12-.16-.17-.34-.17-.54,0-.12.03-.24.1-.35s.16-.21.27-.3.26-.16.43-.21c.17-.05.36-.07.57-.07.38,0,.75.12,1.09.33.35.22.66.57.94,1.02l.05.09.69-.62-.05-.07c-.24-.31-.46-.55-.68-.73-.21-.19-.43-.34-.65-.45-.21-.1-.44-.17-.67-.21-.22-.03-.47-.05-.72-.05-.39,0-.74.06-1.07.16-.32.11-.61.26-.85.46-.24.2-.43.43-.56.7s-.21.57-.21.88c0,.33.06.63.18.88.12.25.28.47.48.66s.42.35.67.49c.24.13.49.26.75.39.26.12.5.24.74.35.24.11.45.23.64.37.18.13.33.28.44.45.11.16.16.35.16.56,0,.13-.03.26-.09.38-.07.12-.16.24-.27.34-.12.1-.26.17-.42.23-.35.12-.78.11-1.12.02-.17-.05-.35-.13-.52-.24-.17-.11-.34-.26-.5-.44-.16-.17-.34-.4-.52-.65l-.06-.08-.75.68.05.07c.23.31.47.55.72.73.24.19.49.34.73.44.25.11.49.17.73.21.24.03.48.05.7.05.49,0,.94-.06,1.31-.18s.68-.29.93-.5.44-.47.56-.76c.12-.29.19-.6.19-.94s-.07-.63-.2-.87c-.12-.25-.3-.47-.51-.66h0Z"/>
        <path class="cls-1" d="M86.08,106.75c-.08-.08-.19-.16-.31-.21-.23-.1-.5-.1-.73,0-.12.05-.21.12-.31.21s-.16.19-.21.31-.07.24-.07.37.02.26.07.37.12.21.21.31c.08.08.19.16.31.21s.24.07.37.07.26-.02.37-.07.21-.12.31-.21c.09-.08.16-.19.21-.31s.07-.24.07-.37-.02-.26-.07-.37c-.06-.12-.12-.21-.21-.31Z"/>
        <polygon class="cls-1" points="84.58 110.58 84.58 118.05 86.26 118.05 86.26 110.12 85.73 110.12 84.58 110.58"/>
        <path class="cls-1" d="M92.19,116.68c-.1.12-.21.21-.35.3-.12.07-.26.12-.42.12-.11,0-.21-.02-.3-.06s-.16-.09-.23-.16-.12-.15-.16-.23c-.04-.09-.06-.18-.06-.29v-5.29h1.7v-.82h-1.7v-2.59h-.52l-1.16.45v2.16l-1.26.35-.07.02v.44h1.33v5.29c0,.27.03.52.09.74.07.22.16.42.29.59.13.16.3.3.49.39s.44.14.7.14c.5,0,.94-.11,1.28-.32.35-.21.63-.49.84-.87l.04-.07-.51-.34-.03.06h0Z"/>
        <path class="cls-1" d="M97.68,115.65l-2.88-5.4h-1.91l3.94,7.36-.49,1.11c-.06.13-.13.28-.22.44-.08.15-.19.3-.3.43-.11.12-.23.23-.36.32-.12.08-.26.12-.4.12-.12,0-.23,0-.33-.03s-.19-.05-.27-.09c-.08-.03-.16-.07-.23-.11-.07-.04-.14-.07-.21-.1l-.07-.03-.67,1.49-.02.06.05.04c.12.09.27.17.45.23.17.06.36.08.54.08.25,0,.5-.04.77-.13s.52-.23.76-.41.48-.41.69-.69.4-.61.57-.99l3.94-9.09h-1l-2.34,5.4h0Z"/>
        <path class="cls-1" d="M111.52,111.22c-.36-.35-.8-.62-1.3-.82s-1.05-.3-1.63-.3-1.15.11-1.65.32c-.5.21-.94.51-1.3.89-.36.37-.65.82-.86,1.32s-.31,1.05-.31,1.62.11,1.06.31,1.54c.21.48.49.9.86,1.25.36.35.8.64,1.3.85s1.06.31,1.65.31,1.15-.12,1.64-.34.93-.54,1.3-.92.65-.84.86-1.36.31-1.07.31-1.66c0-.53-.11-1.04-.31-1.5-.21-.45-.5-.87-.87-1.21h0ZM109.65,117.27c-.23.14-.49.21-.78.21-.4,0-.76-.1-1.06-.31-.31-.21-.59-.49-.8-.83-.22-.35-.39-.78-.5-1.25-.12-.48-.17-1-.17-1.54,0-.37.05-.73.16-1.06s.25-.62.42-.87c.17-.24.38-.44.6-.58.22-.14.45-.21.69-.21.47,0,.88.1,1.2.3.33.2.6.47.81.82s.35.76.45,1.23c.09.48.14.99.14,1.53,0,.37-.05.73-.15,1.06-.1.33-.23.63-.4.88-.17.25-.38.45-.61.59h0Z"/>
        <path class="cls-1" d="M119.86,107.26c-.17-.19-.37-.35-.59-.49-.21-.13-.46-.23-.72-.31-.64-.17-1.34-.13-1.95.14-.35.16-.67.39-.92.67-.26.28-.47.6-.63.98-.15.37-.23.78-.23,1.2v.79h-1.58v.82h1.58v6.98h1.69v-6.98h2.03v-.82h-2.03v-1.71c0-.18.02-.37.07-.54s.12-.33.21-.46.2-.24.32-.32c.12-.07.26-.12.4-.12.24,0,.45.05.6.15.16.1.3.22.4.38s.2.34.27.54c.07.2.14.4.19.59l.03.12,1.26-.91-.02-.07c-.1-.23-.24-.45-.4-.64Z"/>
        <polygon class="cls-1" points="130.15 112.51 125.36 112.51 125.36 108 123.53 108 123.53 118.05 125.36 118.05 125.36 113.32 130.15 113.32 130.15 118.05 131.99 118.05 131.99 108 130.15 108 130.15 112.51"/>
        <path class="cls-1" d="M140.66,111.22c-.36-.35-.8-.62-1.3-.82s-1.05-.3-1.63-.3-1.15.11-1.65.32c-.5.21-.94.51-1.3.89-.36.37-.65.82-.86,1.32s-.31,1.05-.31,1.62.11,1.06.31,1.54c.21.48.49.9.86,1.25.36.35.8.64,1.3.85s1.06.31,1.65.31,1.15-.12,1.64-.34.93-.54,1.3-.92.65-.84.86-1.36c.21-.52.31-1.07.31-1.66,0-.53-.11-1.04-.31-1.5-.21-.45-.5-.87-.87-1.21h0ZM138.78,117.27c-.23.14-.49.21-.78.21-.4,0-.76-.1-1.06-.31-.31-.21-.59-.49-.8-.83-.22-.35-.39-.78-.5-1.25-.12-.48-.17-1-.17-1.54,0-.37.05-.73.16-1.06s.25-.62.42-.87c.17-.24.38-.44.6-.58.22-.14.45-.21.69-.21.47,0,.88.1,1.2.3.33.2.6.47.81.82s.35.76.45,1.23c.09.48.14.99.14,1.53,0,.37-.05.73-.15,1.06-.1.33-.23.63-.4.88-.16.25-.37.45-.61.59h0Z"/>
        <path class="cls-1" d="M149.39,110.82c-.18-.21-.4-.39-.64-.51-.24-.12-.5-.19-.78-.19-.52,0-1.05.13-1.55.4-.45.23-.89.57-1.31,1.01v-1.41h-.52l-1.17.45v7.49h1.69v-5.69c.16-.15.32-.29.49-.41.18-.13.36-.25.54-.34s.36-.16.54-.22c.36-.11.68-.11.93.02.13.06.26.16.35.27s.18.27.24.45c.06.18.08.4.08.64v5.29h1.68v-5.55c0-.32-.05-.64-.16-.92-.1-.31-.25-.56-.43-.78h0Z"/>
        <path class="cls-1" d="M156.88,110.45c-.16-.07-.33-.12-.52-.17-.2-.05-.41-.09-.63-.12-.22-.03-.45-.04-.68-.04-.48,0-.93.07-1.34.22-.41.15-.78.35-1.09.6s-.56.56-.73.9c-.17.35-.26.71-.26,1.1,0,.52.15.99.45,1.39.26.35.62.64,1.06.86-.15.07-.3.15-.43.24-.19.12-.35.27-.5.43-.15.16-.26.32-.35.49-.09.18-.13.35-.13.52,0,.12.02.23.08.34.06.1.13.2.23.28.09.08.21.16.34.22.08.04.16.08.26.12-.16.12-.31.25-.47.37-.2.16-.39.34-.55.52s-.31.37-.41.57-.16.42-.16.64c0,.26.08.49.25.7.16.2.41.38.73.52.31.14.72.25,1.2.32.47.07,1.03.12,1.67.12.71,0,1.35-.07,1.91-.21.56-.14,1.05-.34,1.44-.6.4-.26.7-.58.92-.95s.32-.79.32-1.25c0-.26-.04-.49-.12-.7-.08-.21-.21-.4-.4-.55-.18-.16-.44-.28-.75-.37-.31-.09-.69-.14-1.15-.16l-2.81-.12c-.3-.02-.52-.07-.68-.15-.14-.07-.21-.16-.21-.29,0-.14.04-.29.13-.43.08-.13.19-.26.31-.36.15.04.31.08.49.11.21.03.41.04.6.04.53,0,1.01-.07,1.45-.19.44-.13.82-.31,1.14-.55.32-.24.57-.53.75-.87s.27-.71.27-1.12c0-.26-.05-.53-.14-.8-.07-.21-.16-.4-.27-.58h1.37v-.81h-2.23c-.1-.09-.21-.16-.35-.22h0ZM152.69,118.89c.02-.11.07-.22.12-.33.06-.11.12-.21.21-.31.07-.09.16-.17.26-.25.11.02.27.03.49.06.25.02.53.05.85.07s.67.04,1.05.06c.36.02.74.02,1.11.02.29,0,.55.02.78.06s.42.1.57.17c.15.07.26.16.35.28.07.11.12.24.12.39,0,.14-.07.29-.2.43-.14.15-.35.29-.61.42-.27.13-.61.23-1,.31-.39.07-.84.12-1.34.12-.47,0-.88-.03-1.24-.1s-.65-.16-.87-.27c-.22-.12-.4-.24-.5-.39-.11-.14-.16-.28-.16-.43,0-.1,0-.21.03-.31h0ZM154.24,110.83c.17-.1.38-.15.62-.15s.48.07.69.19c.22.12.42.31.59.53.16.22.31.49.4.81.1.31.15.65.15,1.01,0,.25-.04.49-.13.7-.08.21-.2.4-.35.57-.14.16-.31.29-.49.38-.41.2-.88.17-1.25-.04-.2-.12-.38-.28-.52-.49-.15-.21-.26-.46-.35-.75-.08-.29-.12-.6-.12-.94,0-.28.02-.54.08-.79.06-.24.14-.45.26-.63.11-.16.25-.3.42-.4Z"/>
        <polygon class="cls-1" points="171.32 108 169.98 108 164.89 112.29 164.89 108 163.05 108 163.05 118.05 164.89 118.05 164.89 113.15 170.24 118.04 170.26 118.05 172.63 118.05 166.28 112.25 171.32 108"/>
        <path class="cls-1" d="M179.84,111.22c-.36-.35-.8-.62-1.3-.82s-1.05-.3-1.63-.3-1.15.11-1.65.32-.94.51-1.3.89c-.36.37-.65.82-.86,1.32s-.31,1.05-.31,1.62.1,1.06.31,1.54.49.9.86,1.25c.36.35.8.64,1.3.85s1.06.31,1.65.31,1.14-.12,1.64-.34c.49-.22.93-.54,1.3-.92s.65-.84.86-1.36c.21-.51.31-1.07.31-1.66,0-.54-.11-1.04-.31-1.5-.21-.45-.5-.87-.87-1.21h0ZM177.97,117.27c-.23.14-.49.21-.78.21-.4,0-.76-.1-1.06-.31-.31-.21-.59-.49-.8-.83-.22-.35-.39-.77-.5-1.25s-.17-1-.17-1.54c0-.37.06-.73.16-1.06.11-.33.25-.62.43-.87.17-.24.38-.44.6-.58.22-.14.45-.21.69-.21.47,0,.88.1,1.2.3.33.2.6.47.81.82s.36.76.45,1.23c.09.48.14.99.14,1.53,0,.37-.05.73-.15,1.06s-.23.63-.4.88c-.17.25-.38.45-.62.59h0Z"/>
        <path class="cls-1" d="M188.58,110.82c-.18-.21-.4-.39-.64-.51-.24-.12-.5-.19-.79-.19-.52,0-1.04.13-1.55.4-.45.23-.89.57-1.31,1.01v-1.41h-.52l-1.17.45v7.49h1.69v-5.69c.15-.15.32-.29.49-.41.18-.13.36-.25.54-.34s.36-.16.54-.22c.36-.11.68-.11.93.02.13.06.26.15.35.27.1.12.18.27.24.45s.08.4.08.64v5.29h1.68v-5.55c0-.32-.05-.64-.16-.92-.09-.31-.24-.56-.42-.78h0Z"/>
        <path class="cls-1" d="M198.64,110.66h-2.23c-.09-.07-.21-.14-.35-.2-.16-.07-.33-.12-.52-.17-.2-.05-.41-.09-.63-.12-.22-.03-.45-.04-.68-.04-.48,0-.93.07-1.34.22-.41.15-.78.35-1.09.6-.31.26-.56.56-.73.9-.17.35-.26.71-.26,1.1,0,.52.15.99.45,1.39.26.35.62.64,1.06.86-.15.07-.3.15-.43.24-.19.12-.35.27-.5.43s-.26.32-.35.49c-.09.18-.13.35-.13.52,0,.12.02.23.08.34.06.1.13.2.22.28.09.08.21.16.34.22.08.04.16.08.26.12-.16.12-.31.25-.47.37-.2.16-.39.34-.55.52s-.31.37-.41.57-.16.41-.16.64c0,.26.08.49.25.7.16.2.41.38.73.52.31.14.72.25,1.2.32.47.07,1.03.12,1.67.12.71,0,1.35-.07,1.91-.21s1.05-.34,1.44-.6c.4-.26.7-.58.92-.95s.32-.79.32-1.25c0-.26-.04-.49-.12-.7-.08-.21-.21-.4-.4-.55-.18-.16-.44-.28-.75-.37-.31-.09-.69-.14-1.15-.16l-2.81-.12c-.3-.02-.52-.07-.68-.15-.14-.07-.21-.16-.21-.29,0-.14.05-.29.13-.43.09-.14.19-.26.31-.36.14.04.31.08.49.11.21.03.41.04.6.04.53,0,1.01-.07,1.45-.19.44-.13.82-.31,1.14-.55.32-.24.57-.53.75-.87s.27-.71.27-1.12c0-.26-.05-.53-.14-.8-.07-.21-.16-.4-.27-.58h1.37v-.83h0ZM191.88,118.89c.02-.11.07-.22.12-.33.06-.11.12-.21.21-.31.07-.09.16-.17.26-.25.11.02.27.03.49.06.25.02.53.05.85.07s.67.04,1.05.06c.36.02.74.02,1.11.02.29,0,.55.02.78.06s.42.1.57.17c.15.07.26.16.35.28.07.11.12.24.12.39,0,.14-.07.29-.2.43-.14.15-.35.29-.61.42-.27.13-.61.23-1,.31-.39.07-.84.12-1.34.12-.47,0-.88-.03-1.24-.1s-.65-.16-.87-.27c-.22-.12-.4-.24-.5-.39-.11-.14-.16-.28-.16-.43,0-.1,0-.21.03-.31h0ZM193.43,110.83c.17-.1.38-.15.62-.15s.48.07.69.19c.22.12.42.31.59.53.16.22.31.49.4.81.1.31.15.65.15,1.01,0,.25-.04.49-.13.7-.08.21-.2.4-.35.57-.14.16-.31.29-.49.38-.41.2-.88.17-1.25-.04-.2-.12-.38-.28-.52-.49-.15-.21-.26-.46-.35-.75s-.12-.6-.12-.94c0-.28.02-.54.08-.79.06-.24.14-.45.26-.63.11-.16.25-.3.42-.4Z"/>
      </g>
    </g>
  </g>
  <g>
    <path id="path32" class="cls-2" d="M94.26,303.61l2.35-1.14h.23v8.12c0,.53.03.87.06,1.01.05.13.14.23.28.3.14.07.43.11.87.12v.26h-3.62v-.26c.45-.01.74-.05.88-.12.13-.07.22-.16.28-.28.05-.12.07-.46.07-1.04v-5.19c0-.7-.02-1.15-.07-1.35-.04-.15-.09-.26-.18-.33-.08-.07-.19-.11-.31-.11-.18,0-.42.07-.73.22l-.11-.22Z"/>
    <path id="path34" class="cls-2" d="M100.92,312.4v-.26c.61,0,1.19-.15,1.72-.42.53-.28,1.04-.77,1.53-1.46.5-.69.84-1.45,1.04-2.28-.74.48-1.41.71-2.02.71-.68,0-1.26-.26-1.74-.77-.48-.53-.72-1.23-.72-2.09s.24-1.59.72-2.25c.58-.8,1.34-1.2,2.28-1.2.79,0,1.47.32,2.03.97.69.81,1.04,1.81,1.04,3,0,1.06-.26,2.06-.79,2.99-.52.92-1.26,1.69-2.19,2.3-.77.5-1.6.75-2.5.75h-.4ZM105.33,307.46c.08-.61.13-1.1.13-1.47,0-.46-.08-.95-.23-1.48-.16-.53-.38-.94-.67-1.23-.28-.28-.6-.42-.97-.42-.42,0-.79.18-1.11.57-.31.37-.47.94-.47,1.68,0,1,.21,1.79.63,2.35.3.4.68.61,1.14.61.21,0,.47-.05.77-.16.3-.1.56-.25.79-.44"/>
    <path id="path36" class="cls-2" d="M114.85,302.67l-.55,1.21h-2.9l-.63,1.29c1.25.18,2.25.65,2.98,1.4.63.64.95,1.4.95,2.27,0,.5-.1.97-.31,1.4-.21.43-.47.79-.78,1.1-.31.3-.66.54-1.04.73-.55.26-1.1.39-1.68.39s-1-.09-1.26-.29c-.26-.2-.39-.41-.39-.65,0-.14.05-.25.16-.35.1-.11.24-.16.41-.16.11,0,.22.02.32.06.09.04.25.13.47.29.35.25.71.37,1.08.37.55,0,1.04-.21,1.46-.62.42-.42.63-.93.63-1.53s-.19-1.12-.56-1.62c-.37-.51-.89-.9-1.55-1.17-.52-.21-1.22-.33-2.11-.37l1.85-3.73h3.45Z"/>
    <path id="path38" class="cls-2" d="M123.2,310.43l-.68,1.85h-5.69v-.26c1.68-1.52,2.86-2.76,3.53-3.73.68-.96,1.03-1.85,1.03-2.65,0-.61-.19-1.11-.56-1.5-.37-.4-.82-.59-1.34-.59-.47,0-.9.14-1.28.42-.38.27-.65.68-.83,1.21h-.26c.12-.87.42-1.54.91-2.01.49-.47,1.1-.7,1.84-.7.78,0,1.43.24,1.95.75.53.5.79,1.09.79,1.77,0,.48-.11.97-.34,1.46-.35.76-.92,1.58-1.7,2.43-1.18,1.29-1.92,2.07-2.22,2.33h2.52c.51,0,.87-.01,1.08-.05s.39-.12.55-.23c.17-.12.31-.28.44-.49h.26Z"/>
    <path id="path40" class="cls-2" d="M197.22,226.1c-.47.03-.95.06-.99-.42-.99-.41-2.21-4.19-2.27-5.15-.04-.47.85-1.5.37-1.47-.03-.47-.54-.92-.54-.92-.51-.45-.54-.93-.58-1.41q-.47.04-.98-.41l-.51-.44c-.51-.45-.54-.93-1.06-1.38-.03-.48-.51-.44-.54-.93-.47.03-.99-.41-1.02-.89-.47.03-2.48-1.28-2.52-1.75-.61-1.89,4.19-1.75,4.74-.82.54.93-.89,1.03-.82,1.99.48-.03.44-.51.92-.54.47-.04.92-.54,1.87-.61l.44-.51c.47-.04.92-.55.92-.55.44-.51,1.36-1.06,1.84-1.1-.03-.47.45-.51.45-.51q.51.44.54.93c-.41.99-1.78,2.06-2.74,2.12-.95.07-1.4.58-2.35.65.04.48-.44.51-.44.51,0,0-.44.51.04.48.04.48.51.44.51.44.44-.51.92-.54,1.4-.58q.47-.03.95-.06c-.03-.48.44-.51.92-.55q.44-.51.92-.54c.48-.03.45-.51.93-.54.95-.07,1.46.38,1.01.89.04.48-.41.99-.88,1.02,0,0-.48.03-.96.07.03.48-.45.52-.92.55,0,0-.48.03-.96.07l-.48.03s-.44.51-.92.54c0,0-.48.04-.44.51l.47-.04c.48-.03.99.41,1.47.38,0,0,.44-.51.92-.54.5.44.07.96.54.93,0,0,.51.44.48-.04,0,0-.51-.45-.55-.92-.03-.48.93-.55,1.4-.58l.44-.51.48-.04c.04.48.07.96.58,1.41.98.41,2.32-1.13,2.9.28.04.48.07.96.1,1.44-.44.51-.89,1.02-1.88.61-.5-.45-.06-.96-1.01-.9l-.48.04c.04.48-.44.51-.4.99-.44.51-1.47-.38-1.95-.35q-.47.04-.95.07l.04.48-.48.03c-.44.51-.38,1.47.58,1.4.48-.03.44-.51.41-.99l.47-.04c.51.45.58,1.4,1.54,1.34-.04-.48.37-1.47.82-1.98.95-.07.61,1.88,1.6,2.3l.92-.55c.47-.03.41-.98.41-.98l.48-.04c.04.48.51.44.51.44.51.44,1.02.9,1.53,1.34,0,0,.07.96.1,1.44l.03.48c-.88,1.03-1.9.13-2.9-.28,0,0-.95.07-1.43.1-.47.03-.95.06-1.46-.38-.47.04-.95.07-1.43.1q-.48.04-.98-.4l.03.47.04.48c.5.44,1.02.89,1.05,1.37.51.45.58,1.41.16,2.4,0,0-.48.04-.44.52"/>
    <path id="path42" class="cls-2" d="M190.38,224.16c-1.47-.38-1.02-.89-1.57-1.82-.03-.48-.5-.45-.54-.93,0,0-.04-.48-.54-.92-.47.03-1.4.57-1.88.61l-.44.52q-.47.03-.95.07c-.92.54-4.36-.66-4.43-1.62.41-1,1.23-2.98,2.16-3.53,0,0,.44-.51.47-.03.52.44.55.93.58,1.4q.03.49.51.45c.53.93.57,1.41,1.49.86.47-.03.96-.07,1.43-.1.38-1.48-2.14-3.23-1.8-5.18.47-.04.44-.51.92-.55,0,0,.51.44.55.93.47-.03.5.44.54.93.04.47.61,1.88.65,2.37.5.45,1.43-.1,1.9-.14q.48-.03.96-.07l-.51-.44c-.51-.44-.55-.92-1.02-.89-.06-.96-.13-1.92.82-1.99l.51.44c.03.49.1,1.45.61,1.89.51.44.54.93,1.06,1.38.51.44,1.02.89,1.49.86.04.47.61,1.88.17,2.39,0,0-.47.04-.95.07-.04-.48-.51-.45-.54-.93-.51-.45-2.49-1.27-2.49-1.27-.4.98.61,1.88,1.16,2.81,0,0,.04.48.54.93,0,0,.04.48-.44.52.04.47-.44.5-.41.99"/>
    <path id="path44" class="cls-2" d="M177.79,204.1c-.96-.03-1.89-1.02-2.34-1.99-.47-.01-.94-.51-.92-.99-.47-.49-.94-.99-.94-.99v-.47c.03-.48.04-.96.05-1.45.03-.96.06-1.92.07-2.4.01-.48.59-3.83.59-3.83-.46-.5-1.43-.04-1.93.42-.48-.01-.95-.03-1.44-.04-.97.45-1.92.43-2.39-.07-.96-.03-1.89-1.01-2.34-1.99.01-.48-.47-.49-.45-.97-.44-.98.99-.94,1.47-.92.46.49.93.99,1.39,1.48,1.42.52,3.81.59,4.8-.34v-.48q.02-.48-.45-.5c-.45-.98-.92-1.46-1.85-2.46l-.46-.49s.01-.48.03-.96c0,0,.01-.48.49-.47,0-.48.98-.93,1.45-.44.47.01.46.5.92,1l.46.49s.46.49.93.99c0,0,.48.01.96.03.46.49.45.97,1.41,1,.48.02,1.96-1.39,1.97-1.86.51-.95.53-1.92,1.97-1.88.01-.47.49-.46.49-.46q.46.5.94.51c-.01.48-.02.96.44,1.46-.01.47.46.49.44.97v.47c-.53,1.43-1.5,1.89-2.46,1.86-.48-.01-.96-.03-.97.45-.97.45.93.99.93.99.95.03,2.36,1.03,1.86,1.98q-.48-.01,0,0c-.49.47-.03.96-.52,1.43-.49.47-1.43-.04-1.9-.53,0,0-.46-.49-.94-.51.01-.48-1.41-1-1.9-.54,0,0-.5.47-.51.95-.5.95-.08,2.89-.13,4.33.47.5-.02.96.44,1.46-.04,1.44-.07,2.4-.11,3.85.46.49.45.97.43,1.45v.48Z"/>
    <path id="path46" class="cls-2" d="M157.69,184.48c-1.9-.22-4.69-1.04-5.95-2.64-.42-.53-.78-1.55-1.2-2.08-.31-1.49-.55-3.45-1.33-5l.05-.48c-.47-.06-.42-.53-.89-.59-.59.9-1.59,1.27-2.55,1.15-1.48.31-3.85.03-4.75-.56-.42-.54-.89-.59-.84-1.07.05-.47.58-.9.58-.9.48.06,1.37.65,1.85.71.94.11,3.43-.56,3.97-.99.53-.42-.72-2.03-.67-2.5-.48-.06.12-.96.65-1.38,1.05-.84,3.16,1.83,3.81.45.58-.9.22-1.91.28-2.39-.43-.53-1.26-1.6-.19-2.45,0,0,.47.06.95.11.46.06,1.36.65,2.32.76.47.06.95.11,1.89.22.96.11,2.38.28,2.79.81q.43.53.37,1.01c-.06.47-.65,1.37-1.13,1.32l-.47-.06-.05.48c-.48-.06-1.48.3-1.96.25-.47-.06-.89-.58-1.43-.16l-.05.48c-.05.47.42.53.42.53.89.59,2.32.75,2.68,1.77.83,1.07-.65,1.38-1.11,1.32-1.49.31-2.8-.82-3.86.02-.47-.06-.17,1.44.3,1.49.36,1.01.25,1.97.67,2.5.36,1.01.73,2.02,1.62,2.62.35,1.01,1.19,2.08,2.51,3.2-.05.48.89.59.84,1.07l.42.53c-.48-.06-.53.42-.53.42"/>
    <path id="path48" class="cls-2" d="M90.15,170.28c-.96,0-1.43,0-1.43-.48-.47-1.93.96-1.93,1.91-1.93.48,0,1.43-.48,1.92-.96,0,0,.47,0,.47-.48s-.96-.96-1.43-1.44v-.96s-.48-.48,0-.48c0-.48.47-.48.96-.48,0-.48.47-.48.96-.96,0-.48.47-.96.96-1.44.47-.97.47-1.93.95-2.89.48-.48.96-.48,1.44-.48s1.44-.96,1.44-1.45c0,0,0-.48-.48-.48-.48.48-.96.48-1.43.48-.48.48-.96.48-1.44.96,0,0-.47,0-.96.48-.47,0-.96.48-1.92.96-.47.48-1.91.96-2.39,1.44-.48,0-.48.48-.48.48-.47.48-.95.96-1.42,1.45h-.48l-.48-.48c-.47-.48-.95-.96-.95-1.93s1.92-3.37,2.87-3.37c.47-.48.96.48.47.48v.96c.48.48,2.87-.96,2.87-.96.48,0,.48-.48.96-.48-.96,0-.96-.96-1.43-1.44,0,0-.48-.48-.96-.48,0-.48-.48-.48-.48-.48-.47-.48.96-.96,1.44-1.44.47,0,1.43,0,2.39-.48.48,0,.96.48,1.43.96.48.48.96,1.44.48,1.92,0,.48-.48.48-.48.48.96,0,1.44,0,2.4-.48h.96c.47,0,.96-.48,1.43-.48.95-.48,1.44.48,1.91.96.48.48.96.96.96,1.44-.96.48-.96.96-1.92.96h-1.91q-.47.48-.95.48h-.48c-.48,0,0,.48,0,.96v.48c-.48.48-.96.96-1.43.96-.96.48-1.44,1.45-1.91,1.93l-.48.48c.48,0,2.87-.96,3.35-.48,0,.96-.47,1.92-1.43,2.41h-.48c-.47.48,0,.48,0,.96l-.47.48c1.44,0,3.36-.96,4.3-.48.48,0,.96.48,1.44.96,0,.48,0,1.44-.48,1.44-.47.48-.96,0-1.43,0-.47.48-.96.48-1.92.48-.47,0-.96.48-1.44.48h-1.43c-.47,0-.47.48-.96.48s-.96.48-1.43.48c-.48.48-.96.48-1.44.48"/>
    <path id="path50" class="cls-2" d="M92.07,161.62h-.95c0-.48-.48-1.45,0-1.93.47-.48.95,0,1.43,0l.96-.48v.48q0,.48-.48.48v.96q-.48.48-.96.48"/>
    <polygon id="polygon52" class="cls-2" points="101.12 215.06 113.67 212.96 101 210.62 98.87 197.78 96.44 210.32 83.15 212.46 96.26 215.3 98.5 228.14 101.12 215.06"/>
    <path id="path54" class="cls-2" d="M31.07,228.31c-.47,0-.96-.48-1.43-.48-.48.48-.96,0-.96-.48-.48-.48.48-.96.48-1.45,0,0-.48-2.41-.48-2.89-.48-.48-.95-.96-1.43-.96-1.92-1.92-1.92,1.92-3.83,1.44-1.43-.48,0-2.89-.48-3.37-.95-1.44-2.39-.48-3.35-1.44-.96-.97.48-3.37,1.44-3.85.96-.48,1.91,0,2.39,0q.95.48,1.43.96c.48.48.96.96,1.43.96.96.96,2.4,1.44,3.36,2.41,0,.48.47.48.96.96v1.44c0,.48.47.96.47,1.44.48.96.48,1.45.48,1.92.48.96.96,2.41-.48,3.37"/>
    <path id="path56" class="cls-2" d="M32.03,214.85h-.96c-.96-.49-1.91-.96-2.87-.96,0-.49-.47-.49-.47-.49-.48-.47-1.44-.47-1.92-.96-.48-.47-.96-.96-1.44-1.44h-.95c-1.43,0-1.92-.48-2.39-1.44-.48-.48,0-1.44,0-1.93.47-.48.96-.48,1.43-.96,1.44,0,1.44,1.92,2.39,1.92.48,0,.48-.48.48-.96v-.48c0-.47.48-1.44,1.44-1.44,0,0,.48,0,.96.47v.49c.47.96,0,1.92,0,2.4q-.48.48-.48.96.48.48.95.96s.48,0,.48.48c.48.48,1.43.96,1.92.96h.95c.48-.47.48-.96.48-1.44,0-.96.48-1.44.48-1.93.47,0,.95-.48.95-.48.48-.48.95,0,1.43,0,.48.48.96.48.96.96,0,1.44-1.92,3.84-2.4,4.81-.48,0-1.43,0-1.43.49"/>
    <path id="path58" class="cls-2" d="M43.09,202.87h-.96c-.47-.48-1.91-1.93-1.43-2.41.47-.47,1.43,0,1.43-.47,0,0,.96-.96.96-.48v.96c.48.96.95,1.93,0,2.41"/>
    <path id="path60" class="cls-2" d="M49.31,192.28h-.96q-.48,0-.95-.48h-1.44l-.47-.48c.47-1.45,2.38-2.89,3.82-2.89,0,.47.47.47.47.47.48.49.96,1.93.48,2.41,0,.48-.48.96-.96.96"/>
    <path id="path62" class="cls-2" d="M34,194.69s-.47,0-.95-.48c0,0-.48,0-.48-.48-.48-.96.96-1.44,1.43-1.92,0-.48.48-1.45.96-1.93,0-.48.47-.96.47-1.44.47-.48.47-.96,0-1.44h-.47c-.48.48-1.92.96-1.92-.48v-1.44c.48,0,.95-.48,1.43-.97.48,0,.48-.48.96-.96.95-.48,1.91.49,1.91,1.45.96,0,.96-.96,1.44-.96l.47-.49c.48-.48,2.4-2.89,2.87-1.92.48,0,.48.48.48.48-.48.48-.95.96-.95,1.44-.48.49-.96.49-1.44.96-.96,1.45-2.39,2.41-2.87,3.85-.48.96-.48,1.45-.96,1.93v.96c-.48.48-.95,1.44-.95,1.92-.47.48,0,.96-.47,1.44,0,.48-.48.48-.96.48"/>
    <path id="path64" class="cls-2" d="M47.4,198.06h-.96c-.48,0-2.4,0-2.4-.48s.96-.48.96-.96v-.48c0-.48-1.43-1.44-1.91-1.44-.96,0-.96.96-1.44.96-.96.48-3.83-2.41-3.83-2.89.48-.47.96-1.92.96-2.4.48-.48.48-.96.96-1.93,0,0,.48-.48.48-.96.47-.48.95-.48.95-.96.48-.47.96-1.44,1.44-.96h.48q.47,0,.47.49c0,.47,0,1.44-.47,2.4v.97c0,.47.95.47.95,1.44v.48s0,.48-.47.48c.96.48,2.87,2.41,3.36,2.89,0,.48.47.48.47.48.47.48.47,1.44.47,1.93s-.47.96-.47.96M40.7,192.76c0-.47.48-1.44.48-2.4h-.48v-.48.48c-.47.48-1.43,1.93,0,2.4"/>
    <path id="path66" class="cls-2" d="M63.98,169.46l-.48-.48c-.47-.96.48-1.44.96-1.93,0-.47.47-.96.47-.96,0-.96-1.44-.48-1.44-.96-.47-.48.48-1.92.48-2.41.48,0,1.43-.48,1.91-.96.48-.48,1.91,0,1.91.96v1.45h-.48.48c.48.48,1.92-1.93,2.87-1.45,0,.48,0,.96-.48.96,0,.48-.95,1.44-1.44,1.44q-.95.48-1.43.96c-.47,0-.47.48-.95.48-.48.96-1.44,2.4-2.39,2.89"/>
    <path id="path68" class="cls-2" d="M61.58,181.98c-1.91-.48-1.43-3.37-2.39-3.37l-.48.48s-.48.48-.48.96l-.95.48c-.96,0-.96-.96-.96-1.44s0-.96.48-.96c0-.48.48-.48.96-.48.47-.48.96-1.44.96-1.93s0-.48-.48-.96c0-.96,0-1.93-.47-2.41-.48-.48-.96-.48-.96-.96-.48-.48-.95-.48-.95-.96-.48-.48.47-1.44.47-1.92.48-.96-.47-2.89.48-3.37q.48-.48.96-.48c.47,0,.96-.48,1.44-.48,0,0,.47.48.95.48,0,.48.48.96,0,1.93,0,.48-1.43,1.44-1.92,1.92-.47,0-.47.48-.95.48,0,.48-.48.48-.48.96,0,0,0,.48.48.48q.48.48.95.48v-.96c0-.48.48-.96.48-1.44.48-.48.95-.48,1.43-.48,1.43-.48,1.91,1.44,2.39,2.4v.96c.48.96.95,1.45.95,2.41.48.48.48.96.48,1.44.95.96,2.39,3.85,1.91,5.29,0,.48-.96.48-.96.48-.47-.48-.47-.96-.95-1.44-.48-.48-1.44-.96-1.92-1.92,0-.48.48-.48.48-.48l.95.96h.48c0-.48-.48-1.92-.95-1.92v-.48l-.48-.48q-.48.48-.48.96-.48.48-.95.96v.96c0,.96.95,2.89.47,3.85M60.15,174.28v-.48c0-.48-.95-1.45,0-1.45h.96c0-.48,0-.96-.48-.96,0-.48-.96-1.44-.96-.96-.47,0-.47.48-.47.96v1.45c0,.48.47,1.44.95,1.44"/>
    <path id="path70" class="cls-2" d="M67.32,178.13c-.47,0-.95-.48-.95-.48v-.96c0-.96-.48-1.44-.48-1.92v-2.89c0-.48-.48-1.45-.48-1.45.48,0,.48-.48.48-.48.48,0,.96-.48,1.43-.48.48-.96.48-2.41,1.43-2.41,1.92-.96.96,1.45,1.44,2.41,0,.96.47,1.92,1.44,2.41,0,.48.47.48.47.48.47.48,2.87,0,2.87-.48s-.48-1.45-.48-1.93v-.48s.48,0,.48.48c.47,0,.47.48.95.96.48.48.96.96,1.44,1.44,0,.48.48.96,0,1.44,0,.48-.47.48-.96.96,0,0-.48,0-.96.48-.95,0-3.82,0-4.78-.96-.47-.96-.95-1.93-1.43-2.89-.48-.48-.48-.96-.95-.96h-.48c-.96.96,0,2.41,0,3.37.48,1.44.48,3.37-.48,4.33M66.85,174.76v-2.41h-.48v.48c0,.48,0,1.44.48,1.92"/>
    <path id="path72" class="cls-2" d="M128.77,157.71c-.96,0-2.4-.96-2.4-1.93q0-.48.48-.48c0-.48.48-.48.96-.48h2.4c0,.48.47.48.47.48.47.96-.96,1.93-1.91,2.41"/>
    <path id="path74" class="cls-2" d="M118.25,155.31h-.47c0-.96.47-1.44.95-1.93q.48-.48.48-.96c.47-.48.95-.96,1.43-.96s.97,0,1.44.48c0,0,.96,0,.96.48.48,0,.48.48.48.96-.48,1.93-1.91.96-3.36.96h-.48c-.47.48-.96.96-1.43.96"/>
    <path id="path76" class="cls-2" d="M130.21,170.71c-.48,0-1.44-.48-1.92-.96-.95-.48-1.91-1.92-1.91-2.89s0-2.89.47-3.36v-.48h-.47s-.48,0-.96.48c-.48.96-.96,1.44-1.44,2.41-.47,0-.47.48-.95.96-.48.48-.96.48-1.44.48s-.96,0-.96-.48c-.47-.48,1.44-.96,1.92-.96v-.48c.48-.96.96-1.44,1.43-2.41,0-.48-.47-1.44,0-1.93h.48c.96,0,.96.97,1.92.97.47,0,.96-.97,1.91-.97.48,0,.96,0,.96.97,0,0-.96.48-.96.96-.48.48-.95,2.41-.95,2.89s0,.48.47.96c0,.48,1.44,1.44,1.91.96.48-.48.48-.96.96-1.44h.48l.48.48s0,2.89-.48,2.89c0,.48-.48.48-.95.96"/>
    <path id="path78" class="cls-2" d="M123.99,160.12h-.95l-.48-.48v-.48q.48,0,.48-.48h5.26c.96,0,1.44-.48,1.92-.48q.47-.48.95-.48h.48c.47,0,.95.96.47,1.44-.47,0-1.43.48-1.91.48h-2.4c-.47.48-1.44.48-1.92.48h-1.91Z"/>
    <path id="path80" class="cls-2" d="M118.72,168.78h-.47c-.47-.48-1.43-3.85-.47-3.85,0,0,0-.48,0,0l.47.96c.47-.48.96-2.41.47-2.89-.47,0-2.38.96-2.38.96-.96.48-1.92,2.89-2.88,2.89v-1.44c.48-.48.96-.48,1.44-1.44-.48-.48-.95,0-1.44,0h-.47c-.96-.48,0-2.41.47-2.89.48-.48.96.48,1.44.48h.96s.48,0,.48-.48c.47-.48.47-1.45.47-2.41.47-.48.47-1.44.96-1.92q0-.48.47-.48c.47.48,0,1.44,0,2.4,0,0-.47,0,0,0h.96l.47.48h.48l.47-1.44c-.47-.48-1.43-.48-1.43-.48v-.48l.47-.48c.95,0,1.92-.48,2.4.48v.96l-.47.48c0,.48-.48,1.44-.48,1.92-.48,0-.96.49-.96.97h.47c.48,0,.48.48.48.48v.48c-.48.48-.96.48-.96.96v.96c0,.48-.48.96-.48,1.44,0,1.44,0,2.41-.96,3.37M118.25,161.57v-1.93h-.47c0,.48,0,.97-.48,1.45v.48h.96Z"/>
    <path id="path82" class="cls-2" d="M99.99,240.96s-6.7-2.15-12.96-2.3l-.16-.69,7.3-3.37v.78l-5.66,2.59s7.53.96,11.06,2.08c.42.89.41.91.41.91"/>
    <polygon id="polygon84" class="cls-2" points="157.47 205.37 157.91 205.96 96 297.34 95.36 296.94 106.4 264.77 107.32 263.39 97.24 294.14 156.31 206.71 138.6 215 139.52 213.62 157.47 205.37"/>
    <path id="path86" class="cls-2" d="M156.92,260.12l-1.4-5.3-29.41-.03-3.55,5.29,34.36.03ZM108.63,254.88l-9-.02c-.39,1.55-1.05,3.3-1.59,5.23l9.3-.02c.52-1.87.96-3.62,1.29-5.19M97.86,254.78l-42.56.06-1.41,5.23,42.47.07c.47-1.69,1.05-3.56,1.5-5.36"/>
    <path id="path88" class="cls-2" d="M53.25,246.09c0-14.83,18-27.2,41.89-30-11.87,4.54-20.32,16.1-20.32,29.65,0,2.42.27,4.78.78,7.04h-21.1c-.82-2.16-1.26-4.4-1.26-6.7M76.13,254.78c.54,1.86,1.26,3.63,2.11,5.33h-19.2c-1.49-1.69-2.81-3.47-3.74-5.33h20.83ZM79.03,261.55c.34.6.7,1.19,1.09,1.76h-17.8c-.67-.57-1.3-1.16-1.91-1.76h18.62ZM81.13,264.76c1.52,2.04,3.29,3.89,5.25,5.51h-12.89c-3.51-1.6-6.67-3.45-9.38-5.51h17.03ZM88.28,271.72c1.28.9,2.64,1.72,4.05,2.43-.17.5-.35.99-.52,1.48-5.34-.85-10.34-2.17-14.85-3.9h11.32ZM93.59,274.72c1.46.65,3.1,1.26,4.66,1.68-1.66-.13-3.44-.31-5.04-.54.11-.35.26-.79.38-1.14M118.39,216.45c4.3.64,8.38,1.6,12.18,2.82l-4.26,1.97c-2.37-1.97-5.04-3.59-7.92-4.79M145.74,226.65c7.43,5.28,11.9,12.06,11.9,19.44,0,2.5-.51,4.92-1.48,7.24h-19.24c.59-2.43.91-4.97.91-7.58,0-2.21-.22-4.36-.65-6.45l8.57-12.65ZM155.5,254.78c-.93,1.86-2.17,3.64-3.65,5.33h-17.43c.86-1.69,1.56-3.47,2.12-5.33h18.97ZM150.47,261.55c-.6.6-1.24,1.19-1.9,1.76h-16.03c.38-.57.74-1.16,1.08-1.76h16.85ZM146.77,264.76c-2.72,2.07-5.88,3.91-9.39,5.51h-11.12c1.97-1.62,3.73-3.47,5.25-5.51h15.26ZM133.93,271.72c-5.56,2.13-11.85,3.65-18.61,4.41,3.27-.98,6.33-2.49,9.06-4.41h9.55Z"/>
    <path id="path90" class="cls-2" d="M147.43,199.9l-63.57,30.57s6.8.46,12.01,3.35c.01,0,.01,0,.03.01,0,.01.01.01.02.01,3.28,1.83,5.91,4.61,5.83,8.85v.26h-.01v.08c-.61,11.3-14.22,49.62-14.22,49.62l59.92-92.74ZM101.74,242.69c0,.08,0,.18-.01.26h.01v-.26"/>
    <path id="path92" class="cls-2" d="M157.27,264.79l2.34,5.48h-44.06l3.88-5.47h37.83ZM105.05,270.27h-1.74l3.1-5.51h.47c-.58,1.78-1.17,3.64-1.83,5.51M101.97,270.23h-6.98c.65-1.94,1.12-3.72,1.66-5.44l8.89-.08-3.57,5.52ZM93.55,270.27h-40.67l1.16-3.36.05-.14.64-2,40.4.02c-.62,1.93-.96,3.76-1.58,5.48"/>
    <path id="path94" class="cls-2" d="M189.8,273.1l.8-2.32.18.06-.04.13c-.03.09-.04.21-.02.4.02.19.07.38.16.56.09.18.26.42.5.73l1.91,2.49,1.63.58c.39.14.66.19.79.13.18-.07.31-.24.4-.51l.07-.22.18.06-.98,2.83-.18-.07.08-.23c.1-.28.08-.51-.04-.69-.07-.11-.3-.23-.66-.36l-1.54-.55-3.36.85c-.39.09-.64.17-.75.22-.11.05-.26.17-.45.37-.05.05-.1.15-.15.27l-.17-.07.98-2.85.18.07-.05.15c-.05.15-.07.3-.04.46.02.15.1.26.24.3.11.04.36.02.73-.07l2.58-.64-1.55-2.02c-.23-.3-.42-.48-.57-.53-.09-.04-.18-.04-.27-.01-.08.02-.16.07-.23.14-.07.07-.13.21-.19.38l-.18-.06Z"/>
    <path id="path96" class="cls-2" d="M185.42,283.81l1.47.69-.09.17c-.26-.1-.47-.15-.61-.15-.22,0-.41.07-.58.18-.16.12-.31.3-.44.56l-.45.88,4.68,2.46c.37.2.63.28.76.25.19-.05.34-.2.46-.44l.11-.22.17.09-1.35,2.66-.16-.08.11-.23c.13-.26.15-.49.04-.69-.05-.12-.26-.27-.6-.45l-4.67-2.46-.38.75c-.14.29-.23.5-.25.65-.02.19.02.39.12.58.1.2.29.38.55.55l-.09.17-1.4-.83,2.6-5.11Z"/>
    <path id="path98" class="cls-2" d="M183.55,298.69l.15.12-1.76,2.43-.14-.11.14-.2c.17-.23.23-.46.17-.66-.04-.12-.22-.32-.55-.57l-3.58-2.69c-.28-.21-.48-.33-.59-.37-.08-.02-.19,0-.29.04-.16.07-.28.17-.38.31l-.14.2-.15-.12,1.76-2.43.15.12-.15.21c-.16.23-.22.44-.16.65.04.13.22.32.55.57l3.58,2.7c.28.21.48.33.59.36.09.02.19,0,.3-.04.15-.07.27-.17.37-.31l.15-.2Z"/>
    <path id="path100" class="cls-2" d="M171.43,303.42l1.78,1.6-.12.15c-.38-.26-.73-.43-1.04-.48-.3-.07-.62-.04-.93.08-.31.12-.57.29-.78.53-.23.27-.34.56-.34.89,0,.32.11.57.32.75.16.15.35.22.58.22.33,0,.91-.15,1.75-.46.69-.26,1.18-.42,1.47-.48.29-.05.58-.04.85.02.27.07.51.21.72.39.39.35.59.81.61,1.38.01.56-.19,1.09-.61,1.58-.13.15-.26.28-.41.4-.08.07-.27.2-.57.38-.3.18-.48.3-.53.37-.06.06-.08.13-.08.2,0,.07.06.17.16.3l-.12.15-1.77-1.59.12-.14c.43.26.79.42,1.07.47.28.05.58.01.91-.11.32-.13.61-.33.85-.61.28-.32.42-.66.41-1,0-.34-.12-.61-.35-.81-.12-.12-.28-.2-.47-.24-.19-.04-.41-.04-.65,0-.16.04-.56.16-1.2.4-.64.22-1.11.37-1.43.43-.31.05-.6.05-.86,0-.26-.07-.5-.19-.71-.38-.37-.33-.56-.76-.58-1.3-.02-.53.17-1.02.56-1.47.24-.28.57-.52.97-.71.18-.09.31-.16.36-.22.05-.07.08-.15.08-.22,0-.08-.05-.18-.14-.31l.12-.14Z"/>
    <path id="path102" class="cls-2" d="M151.11,321.4l1.42,2.37,1.29-.81c.34-.21.53-.4.58-.58.07-.23,0-.52-.17-.87l.16-.1,1.25,2.09-.16.1c-.21-.26-.37-.43-.46-.49-.11-.07-.25-.1-.4-.07-.15.01-.35.1-.6.25l-1.29.82,1.18,1.97c.16.27.27.42.33.47.05.04.12.06.2.06.08,0,.2-.06.36-.16l1-.62c.33-.21.56-.39.68-.53.12-.14.21-.32.26-.55.07-.29.09-.69.05-1.17l.17-.11.4,1.82-4.53,2.85-.09-.16.2-.13c.14-.09.25-.21.33-.35.06-.11.08-.22.06-.33-.03-.11-.12-.32-.3-.61l-2.34-3.89c-.23-.38-.41-.59-.54-.63-.17-.05-.38,0-.62.15l-.2.13-.1-.16,4.53-2.85.85,1.27-.17.1c-.24-.27-.44-.45-.59-.52-.14-.07-.31-.09-.49-.06-.14.03-.36.13-.65.31l-1.62,1.02Z"/>
    <path id="path104" class="cls-2" d="M143.86,325.22l.07.18c-.21.15-.34.29-.41.44-.1.23-.14.53-.13.91l.13,6.47-.17.07-4.74-4.5c-.24-.23-.4-.36-.48-.4-.12-.07-.25-.1-.38-.1-.14,0-.31.04-.5.1l-.08-.18,2.59-1.15.07.18c-.28.16-.45.29-.5.4-.05.11-.06.22,0,.34.06.16.24.38.53.64l3.22,3.06-.09-4.39c0-.43-.05-.72-.11-.86-.04-.09-.12-.16-.24-.2-.13-.04-.3-.04-.54.02-.01,0-.04,0-.08.02l-.07-.18,1.95-.87Z"/>
    <path id="path106" class="cls-2" d="M132.38,336.89l.05.18-2.87.77-.04-.18.23-.07c.27-.07.45-.21.54-.41.05-.12.02-.39-.07-.8l-1.12-4.39c-.09-.34-.17-.57-.23-.67-.05-.07-.14-.12-.26-.16-.16-.04-.32-.04-.48,0l-.23.07-.05-.19,2.87-.77.04.18-.24.07c-.27.07-.45.2-.53.4-.05.13-.03.4.07.81l1.12,4.39c.09.34.16.57.23.67.05.07.14.12.26.16.16.04.32.04.48,0l.24-.07Z"/>
    <path id="path108" class="cls-2" d="M114.03,332.58l1.86-.22,4.77,4.74-.44-4.03c-.05-.43-.12-.69-.23-.79-.14-.13-.34-.18-.61-.15l-.23.02-.03-.19,2.38-.28.02.19-.23.02c-.29.04-.48.15-.59.34-.05.12-.06.37-.02.76l.66,5.9-.18.02-5.14-5.09.48,4.31c.04.43.12.69.22.79.14.12.35.17.62.14l.23-.03.03.19-2.38.29-.02-.19.23-.04c.29-.03.48-.15.59-.34.06-.12.06-.38.02-.77l-.54-4.86c-.22-.21-.39-.35-.5-.41-.11-.06-.27-.11-.48-.16-.09-.01-.24-.01-.44,0l-.02-.19Z"/>
    <path id="path110" class="cls-2" d="M105.55,332.89v-.19s2.45.05,2.45.05v.19s-.26,0-.26,0c-.27,0-.48.1-.63.33-.07.11-.12.35-.12.75l-.07,2.85c-.02.71-.1,1.25-.25,1.63-.14.39-.42.72-.83.99-.41.27-.96.39-1.65.38-.75-.02-1.32-.16-1.7-.44-.38-.27-.65-.64-.8-1.09-.1-.31-.14-.89-.12-1.74l.07-2.75c.01-.43-.04-.71-.15-.85-.11-.13-.3-.2-.56-.21h-.26s0-.2,0-.2l2.98.07v.19s-.27,0-.27,0c-.28,0-.49.08-.62.26-.08.12-.13.38-.14.78l-.08,3.06c0,.28.01.59.05.94.04.35.12.63.25.83.12.2.3.36.54.5.24.14.54.21.89.21.45,0,.86-.09,1.22-.27.36-.19.61-.44.75-.75.14-.31.22-.83.24-1.58l.07-2.85c.01-.44-.03-.71-.12-.83-.13-.15-.32-.23-.58-.24h-.26Z"/>
    <path id="path112" class="cls-2" d="M83.64,329.03l-.52,2.16-.16-.05c0-.58-.09-1.05-.27-1.41-.26-.51-.7-.87-1.31-1.08-.83-.28-1.58-.16-2.23.36-.55.44-.95,1.06-1.21,1.84-.21.64-.28,1.26-.21,1.87.07.6.26,1.09.57,1.47.31.38.67.63,1.08.78.24.08.49.12.73.14.24,0,.49,0,.74-.05l.63-1.93c.11-.33.15-.56.14-.68-.01-.12-.06-.22-.15-.31-.08-.09-.26-.18-.52-.27l.06-.18,2.53.85-.06.19-.12-.04c-.25-.09-.45-.06-.6.08-.1.1-.21.33-.33.68l-.67,2.04c-.43.08-.85.11-1.24.08-.39-.02-.8-.11-1.25-.26-1.26-.42-2.09-1.16-2.47-2.21-.29-.79-.3-1.59-.04-2.4.19-.59.52-1.11.97-1.55.54-.53,1.15-.86,1.84-1.02.57-.12,1.18-.07,1.84.15.23.07.45.16.63.27.18.1.43.29.74.54.16.13.27.21.33.22.06.02.12,0,.18-.03.06-.04.12-.15.19-.31l.18.06Z"/>
    <path id="path114" class="cls-2" d="M65.12,320.96l1.68.85,1.46,6.64,1.78-3.64c.18-.38.26-.65.22-.79-.05-.18-.19-.34-.44-.46l-.21-.11.08-.17,2.15,1.08-.08.18-.22-.11c-.26-.13-.48-.15-.67-.04-.11.07-.25.27-.43.62l-2.59,5.32-.16-.08-1.59-7.14-1.9,3.88c-.19.39-.26.65-.23.79.05.18.2.34.43.46l.22.11-.08.17-2.15-1.09.08-.18.21.11c.27.13.49.14.68.04.11-.07.26-.27.43-.62l2.14-4.39c-.07-.3-.14-.51-.2-.63-.06-.12-.16-.24-.32-.39-.07-.07-.2-.15-.38-.24l.08-.17Z"/>
    <path id="path116" class="cls-2" d="M43.92,307.69l2.29,2.28,1.38-1.44c.24-.26.39-.44.44-.56.03-.09.03-.19,0-.31-.05-.16-.13-.3-.25-.42l-.17-.17.13-.14,2.11,2.1-.13.14-.17-.17c-.11-.12-.25-.2-.41-.24-.11-.04-.23-.03-.33.02-.1.05-.27.21-.51.45l-3.12,3.25c-.24.26-.39.44-.44.55-.03.09-.03.19,0,.31.05.17.13.3.25.42l.17.18-.13.13-2.1-2.1.13-.13.17.17c.2.2.4.28.61.25.14-.02.35-.18.64-.48l1.47-1.54-2.29-2.28-1.47,1.53c-.24.26-.39.44-.43.55-.03.09-.03.19,0,.32.04.16.12.3.24.42l.17.17-.13.13-2.11-2.1.13-.14.17.18c.2.21.41.29.62.26.13-.02.34-.18.63-.48l3.12-3.26c.24-.25.39-.44.44-.55.03-.09.03-.18,0-.3-.05-.16-.13-.31-.25-.42l-.17-.18.13-.14,2.11,2.1-.13.14-.18-.18c-.12-.11-.25-.2-.41-.24-.11-.04-.22-.03-.33.02-.11.05-.28.21-.52.45l-1.38,1.44Z"/>
    <path id="path118" class="cls-2" d="M35.1,303.24l-.15.12-1.76-2.42.15-.12.14.2c.17.23.36.35.57.35.13,0,.37-.12.7-.38l3.58-2.72c.28-.21.45-.37.51-.47.05-.08.07-.18.05-.31-.03-.17-.08-.32-.18-.45l-.15-.2.15-.12,1.76,2.42-.15.12-.15-.21c-.17-.23-.35-.35-.56-.35-.14,0-.37.12-.71.37l-3.58,2.72c-.28.21-.45.37-.51.48-.05.08-.06.18-.05.3.02.17.08.32.17.46l.15.2Z"/>
    <path id="path120" class="cls-2" d="M33.19,287.28l-2.32,1.46.79,1.32c.21.34.39.53.56.59.22.07.51,0,.86-.18l.09.15-2.05,1.29-.09-.16c.26-.22.42-.38.47-.47.07-.12.09-.26.08-.41-.02-.16-.09-.36-.24-.61l-.79-1.31-1.94,1.22c-.26.16-.41.27-.45.33-.04.06-.06.12-.06.21,0,.08.06.21.15.37l.61,1.01c.2.34.37.57.51.69.14.13.31.22.54.27.28.07.67.09,1.15.05l.1.18-1.79.41-2.78-4.61.16-.1.13.21c.08.13.19.26.34.33.1.07.21.09.32.06.11-.02.31-.12.6-.3l3.82-2.4c.37-.23.58-.41.62-.55.05-.18,0-.39-.14-.63l-.12-.22.16-.1,2.78,4.62-1.25.87-.1-.17c.27-.26.44-.45.51-.6.07-.14.09-.31.06-.49-.02-.15-.13-.37-.31-.67l-.99-1.64Z"/>
    <path id="path122" class="cls-2" d="M26.21,279.46c.08.49.06.89-.05,1.2-.17.43-.47.73-.9.9-.35.14-.72.15-1.1.05-.37-.1-.68-.29-.94-.58-.28-.3-.57-.82-.86-1.56l-1.23-3.09.18-.07.09.24c.11.27.27.44.49.48.14.04.39-.03.76-.18l4.22-1.68c.4-.16.64-.32.71-.45.09-.18.09-.39-.01-.64l-.1-.24.18-.07,1.13,2.82c.21.52.34.96.39,1.32.06.48.02.9-.14,1.27-.17.41-.47.7-.9.87-.72.28-1.36.08-1.93-.6M25.46,276.83c.05.25.15.56.29.94.33.82.75,1.27,1.26,1.35.26.04.51,0,.76-.09.46-.18.74-.53.83-1.02.07-.41.02-.87-.18-1.36-.12-.32-.28-.6-.45-.83l-2.51,1.01ZM22.33,278.08c.06.41.16.79.31,1.15.19.48.46.85.79,1.09.4.28.83.33,1.29.15.6-.24.91-.71.93-1.4,0-.36-.07-.78-.26-1.24-.16-.4-.29-.68-.38-.83l-2.68,1.07Z"/>
    <path id="path124" class="cls-2" d="M55.38,320.2l-2.22-1.57-1.03.63c-.25.15-.42.28-.5.4-.15.21,0,.48.41.83l-.11.15-1.81-1.28.11-.15c.27.12.46.18.58.16.24-.03.59-.19,1.06-.48l5.37-3.3.15.1-1.38,6.19c-.09.42-.13.72-.11.9.03.29.17.53.43.74l-.11.16-2.27-1.61.11-.15c.4.26.68.28.83.06.08-.12.17-.36.25-.71l.23-1.07ZM55.48,319.79l.67-3.01-2.65,1.61,1.97,1.39Z"/>
    <path id="path126" class="cls-2" d="M169.47,316.13l-1.42,1.23-3.95-.91c-.13.12-.24.21-.32.28-.07.06-.15.12-.23.2l1.34,1.54c.29.33.5.51.65.52.2.02.39-.04.59-.22l.2-.18.12.15-2.27,1.98-.12-.15.2-.18c.22-.19.32-.41.29-.63-.02-.13-.16-.35-.42-.65l-2.99-3.43c-.29-.33-.5-.51-.65-.53-.2-.02-.4.04-.6.22l-.2.18-.13-.14,1.94-1.69c.47-.41.84-.69,1.11-.83.44-.25.88-.33,1.32-.26.38.05.7.24.97.55.62.71.58,1.54-.13,2.5l2.42.56c.49.12.87.17,1.12.15.34-.02.68-.16,1.03-.4l.12.15ZM163.32,316.68s.06-.05.11-.1c.04-.04.08-.07.1-.09.43-.37.7-.76.82-1.16.14-.49.04-.93-.3-1.34-.29-.33-.63-.51-1.02-.53-.39-.02-.75.12-1.09.41-.15.12-.34.33-.55.61l1.92,2.21Z"/>
    <path id="path128" class="cls-2" d="M214.5,248c0-58.82-47.68-106.5-106.5-106.5S1.5,189.18,1.5,248s47.69,106.5,106.5,106.5,106.5-47.68,106.5-106.5M211.44,248c0,57.13-46.31,103.44-103.44,103.44S4.56,305.13,4.56,248c0-57.13,46.31-103.44,103.44-103.44s103.44,46.31,103.44,103.44"/>
    <path id="path130" class="cls-2" d="M180.93,247.78c0-40.07-32.48-72.55-72.55-72.55s-72.56,32.48-72.56,72.55,32.49,72.56,72.56,72.56,72.55-32.48,72.55-72.56M177.26,247.78c0,38.05-30.84,68.89-68.88,68.89s-68.88-30.84-68.88-68.89,30.84-68.88,68.88-68.88,68.88,30.84,68.88,68.88"/>
  </g>
</svg>